<svg width="64" height="64" viewBox="0 0 64 64" fill="none" xmlns="http://www.w3.org/2000/svg">
<path d="M0 32C0 14.3269 14.3269 0 32 0C49.6731 0 64 14.3269 64 32V64H0V32Z" fill="#F3AFA8"/>
<path d="M16.603 50.6097L20.0086 50.6097L20.0086 47.0856L16.603 47.0856L16.603 50.6097ZM44.9557 21.701C44.9557 21.4627 44.769 21.2694 44.5386 21.2694L40.7848 21.2694C40.5544 21.2694 40.3677 21.4627 40.3677 21.701C40.3677 21.9394 40.5544 22.1327 40.7848 22.1327L44.1215 22.1327L44.1215 25.5856C44.1215 25.824 44.3083 26.0172 44.5386 26.0172C44.769 26.0172 44.9557 25.824 44.9557 25.5856L44.9557 21.701ZM18.6007 49.1529L44.8335 22.0062L44.2437 21.3958L18.0109 48.5425L18.6007 49.1529Z" fill="#2D2D2D"/>
</svg>
